<svg xmlns="http://www.w3.org/2000/svg" viewBox="0 0 300 200">
  <defs>
    <linearGradient id="bgGradient" x1="0%" y1="0%" x2="100%" y2="100%">
      <stop offset="0%" style="stop-color:#f0f0f0;stop-opacity:1" />
      <stop offset="100%" style="stop-color:#e0e0e0;stop-opacity:1" />
    </linearGradient>
  </defs>
  
  <rect width="300" height="200" fill="url(#bgGradient)"/>
  
  <!-- Newspaper -->
  <g transform="translate(50, 60) scale(0.7)">
    <path d="M0 0h160v120H0z" fill="#ffffff" stroke="#333" stroke-width="4"/>
    <path d="M10 10h140v15H10z" fill="#333"/>
    <path d="M10 35h90v10H10z" fill="#666"/>
    <path d="M10 55h140v5H10z" fill="#999"/>
    <path d="M10 70h140v5H10z" fill="#999"/>
    <path d="M10 85h140v5H10z" fill="#999"/>
    <path d="M110 35h40v40h-40z" fill="#666"/>
  </g>
  
  <!-- Globe -->
  <g transform="translate(200, 100) scale(0.45)">
    <circle cx="0" cy="0" r="80" fill="#4a90e2" stroke="#333" stroke-width="4"/>
    <path d="M-80 0 Q-40 -60 0 -80 Q40 -60 80 0 Q40 60 0 80 Q-40 60 -80 0 Z" fill="none" stroke="#fff" stroke-width="4"/>
    <path d="M-80 0 H80 M-60 -60 Q0 -20 60 -60 M-60 60 Q0 20 60 60" fill="none" stroke="#fff" stroke-width="4"/>
  </g>
</svg>
